<?xml version="1.0" encoding="UTF-8"?>
<svg version="1.1" xmlns="http://www.w3.org/2000/svg" width="754" height="480">
<path d="M0 0 C248.82 0 497.64 0 754 0 C754 158.4 754 316.8 754 480 C505.18 480 256.36 480 0 480 C0 321.6 0 163.2 0 0 Z " fill="#FEFEFE" transform="translate(0,0)"/>
<path d="M0 0 C2.83747913 1.10289502 5.62940479 2.00729548 8.55859375 2.82421875 C12.40369567 3.92193333 15.72699725 5.42645795 19.25390625 7.2890625 C22.77841457 9.00985186 26.50839462 10.09887902 30.24609375 11.26171875 C35.67685105 12.97471325 40.83197184 14.9302665 46.01171875 17.296875 C48.86886949 18.53064464 51.78031397 19.47016922 54.7421875 20.41796875 C57.71940974 21.42121369 60.63258141 22.55531881 63.55859375 23.69921875 C67.81936744 25.35784161 72.08722494 26.90522431 76.43359375 28.32421875 C80.79433885 29.75322755 85.0453796 31.32920959 89.29296875 33.0625 C99.24581902 37.10419978 109.22297047 40.99230541 119.4453125 44.30078125 C127.57448422 47.08986946 135.41971062 50.72403547 143.24609375 54.26171875 C143.24609375 55.58171875 143.24609375 56.90171875 143.24609375 58.26171875 C136.72213248 64.69221353 125.89766255 67.02578035 117.24609375 68.26171875 C117.24609375 77.50171875 117.24609375 86.74171875 117.24609375 96.26171875 C118.56609375 96.92171875 119.88609375 97.58171875 121.24609375 98.26171875 C123.13737717 100.15300217 122.48277895 102.83239601 122.57421875 105.3515625 C122.4659375 105.98191406 122.35765625 106.61226563 122.24609375 107.26171875 C120.76109375 108.25171875 120.76109375 108.25171875 119.24609375 109.26171875 C120.04139112 114.43501235 121.28127605 119.40360051 122.625 124.45703125 C123.24609375 127.26171875 123.24609375 127.26171875 123.24609375 131.26171875 C128.19609375 131.26171875 133.14609375 131.26171875 138.24609375 131.26171875 C137.85734213 164.23492475 129.05400852 194.9342626 116.625 225.22265625 C113.22196422 233.64830291 112.03171643 238.57055225 115.49609375 247.19921875 C117.02465677 250.67087036 118.63196175 254.07880789 120.37109375 257.44921875 C122.11609257 260.83451646 123.31107449 264.2547515 124.453125 267.8828125 C125.62252607 271.39101571 127.05138085 274.78448452 128.4765625 278.1953125 C129.24609375 280.26171875 129.24609375 280.26171875 129.24609375 282.26171875 C126.62229048 282.7024946 123.99836061 283.14249481 121.37426758 283.58154297 C119.14861612 283.95420562 116.92319523 284.32824765 114.69799805 284.70361328 C109.32534634 285.6049035 103.96301084 286.44679316 98.55859375 287.13671875 C89.24705505 288.53657423 80.22600328 291.49659885 71.24609375 294.26171875 C70.23804688 294.56851562 69.23 294.8753125 68.19140625 295.19140625 C59.72503837 298.03156161 51.68581343 302.16194229 43.6484375 306.01953125 C42.84913818 306.40254395 42.04983887 306.78555664 41.22631836 307.18017578 C39.09828566 308.22176946 39.09828566 308.22176946 37.24609375 310.26171875 C35.92609375 310.26171875 34.60609375 310.26171875 33.24609375 310.26171875 C33.24609375 310.92171875 33.24609375 311.58171875 33.24609375 312.26171875 C31.56640625 313.55078125 31.56640625 313.55078125 29.37109375 314.88671875 C28.65179687 315.33273437 27.9325 315.77875 27.19140625 316.23828125 C25.24609375 317.26171875 25.24609375 317.26171875 23.24609375 317.26171875 C23.24609375 317.92171875 23.24609375 318.58171875 23.24609375 319.26171875 C21.59609375 319.59171875 19.94609375 319.92171875 18.24609375 320.26171875 C17.91609375 321.25171875 17.58609375 322.24171875 17.24609375 323.26171875 C15.30859375 324.07421875 15.30859375 324.07421875 13.24609375 324.26171875 C12.58609375 323.60171875 11.92609375 322.94171875 11.24609375 322.26171875 C13.91276042 319.59505208 16.57942708 316.92838542 19.24609375 314.26171875 C20.21289062 313.23304688 20.21289062 313.23304688 21.19921875 312.18359375 C23.40354653 310.11388141 25.62689784 308.76184014 28.24609375 307.26171875 C29.85997249 306.15069619 31.46404697 305.02531273 33.05859375 303.88671875 C37.36667531 300.85060786 41.73072997 297.97850995 46.24609375 295.26171875 C46.83003906 294.90207031 47.41398438 294.54242188 48.015625 294.171875 C51.66322956 291.98989936 55.29979023 290.39406031 59.28125 288.97265625 C63.02562177 287.61783386 66.6761952 286.01928607 70.26171875 284.2890625 C76.42782378 281.37236174 82.60226243 279.74386092 89.24609375 278.26171875 C89.96104004 278.10171387 90.67598633 277.94170898 91.41259766 277.77685547 C94.52440195 277.08119869 97.63639253 276.38681023 100.75170898 275.70703125 C105.60752993 274.64534304 110.42903262 273.48778069 115.24609375 272.26171875 C114.83359375 271.62234375 114.42109375 270.98296875 113.99609375 270.32421875 C110.52426529 264.24851894 107.9757875 258.03635262 106.24609375 251.26171875 C102.88017948 253.98650649 101.80383099 257.33028667 100.24609375 261.26171875 C99.58609375 261.26171875 98.92609375 261.26171875 98.24609375 261.26171875 C97.91609375 262.91171875 97.58609375 264.56171875 97.24609375 266.26171875 C96.56546875 266.42027344 95.88484375 266.57882812 95.18359375 266.7421875 C81.73261824 269.97972283 69.03409322 274.1278446 56.36499023 279.6706543 C55.21172241 280.17399292 55.21172241 280.17399292 54.03515625 280.6875 C53.00962646 281.14249878 53.00962646 281.14249878 51.96337891 281.60668945 C50.24609375 282.26171875 50.24609375 282.26171875 48.24609375 282.26171875 C48.24609375 282.92171875 48.24609375 283.58171875 48.24609375 284.26171875 C46.95695888 284.93326808 45.66469171 285.59880734 44.37109375 286.26171875 C43.65179687 286.63296875 42.9325 287.00421875 42.19140625 287.38671875 C40.24609375 288.26171875 40.24609375 288.26171875 38.24609375 288.26171875 C38.24609375 288.92171875 38.24609375 289.58171875 38.24609375 290.26171875 C36.59609375 290.59171875 34.94609375 290.92171875 33.24609375 291.26171875 C33.24609375 291.92171875 33.24609375 292.58171875 33.24609375 293.26171875 C31.6287022 294.55503736 29.94935486 295.77128409 28.24609375 296.94921875 C19.64315236 303.07054243 11.10387394 309.81371472 5.60546875 319.00390625 C2.97511286 321.5210349 2.61841564 321.58110369 -0.81640625 321.57421875 C-2.46314589 321.48552481 -4.10904933 321.38030951 -5.75390625 321.26171875 C-13.20600118 320.99835044 -19.89666421 321.53923013 -27.12890625 323.38671875 C-27.886875 323.57492187 -28.64484375 323.763125 -29.42578125 323.95703125 C-36.95652198 326.01320619 -43.42067291 329.11890446 -50.75390625 332.26171875 C-50.75390625 316.75171875 -50.75390625 301.24171875 -50.75390625 285.26171875 C-55.55824219 285.42414063 -60.36257813 285.5865625 -65.3125 285.75390625 C-68.3707099 285.82551207 -71.42787572 285.89289767 -74.48632812 285.9453125 C-79.33382723 286.02878352 -84.1775991 286.12708688 -89.0222168 286.31787109 C-92.93243308 286.47088051 -96.83865473 286.55385761 -100.7516346 286.59000015 C-102.23806781 286.61572165 -103.72429967 286.66596804 -105.20901299 286.74193954 C-109.98404486 286.97638183 -114.18724278 286.89923773 -118.75390625 285.26171875 C-122.95487343 281.44481889 -125.26226261 276.26434992 -127.75390625 271.26171875 C-128.93594879 269.41132528 -130.13910422 267.57391948 -131.37890625 265.76171875 C-134.73234832 260.50539327 -137.46734151 255.03250463 -140.17578125 249.42578125 C-141.67731208 246.30869669 -141.67731208 246.30869669 -143.33984375 243.63671875 C-144.70831235 241.33829634 -145.68481048 239.13481287 -146.62890625 236.63671875 C-148.05307502 232.96758165 -149.59034603 229.39117762 -151.25390625 225.82421875 C-153.35431388 221.25615431 -155.17731915 216.64946863 -156.83203125 211.90234375 C-157.43601219 210.17229666 -158.07053936 208.45254524 -158.73828125 206.74609375 C-160.91182009 200.98812243 -160.91182009 200.98812243 -160.12890625 197.38671875 C-158.81595226 195.35760804 -157.48878075 193.92719827 -155.75390625 192.26171875 C-154.7455647 190.60008549 -153.74682618 188.93261306 -152.75390625 187.26171875 C-152.20992188 186.46894531 -151.6659375 185.67617187 -151.10546875 184.859375 C-136.91295863 164.02014634 -134.50009887 135.66799296 -138.9375 111.28125 C-140.82035899 102.33402083 -143.4969393 93.60947522 -148.28125 85.75390625 C-149.75390625 83.26171875 -149.75390625 83.26171875 -150.75390625 80.74609375 C-151.82597915 78.08266264 -153.15556901 75.89324124 -154.75390625 73.51171875 C-155.26953125 72.733125 -155.78515625 71.95453125 -156.31640625 71.15234375 C-157.62541787 69.14207975 -157.62541787 69.14207975 -159.75390625 68.26171875 C-159.75390625 67.60171875 -159.75390625 66.94171875 -159.75390625 66.26171875 C-162.25461441 65.25069899 -164.75647763 64.26077578 -167.2890625 63.33203125 C-175.65822145 60.20168123 -175.65822145 60.20168123 -178.75390625 56.26171875 C-176.09010584 52.91968133 -172.58998791 51.8761283 -168.69140625 50.51171875 C-167.24693041 49.98956699 -165.80293771 49.46607719 -164.359375 48.94140625 C-163.22894775 48.53293457 -163.22894775 48.53293457 -162.07568359 48.11621094 C-158.19326658 46.68735084 -154.3516539 45.15589948 -150.50390625 43.63671875 C-144.56952434 41.30573631 -138.61289384 39.17907838 -132.54296875 37.22265625 C-128.52762777 35.83921944 -124.65796187 34.14782584 -120.75390625 32.48046875 C-117.78389971 31.27390359 -114.80391712 30.24661809 -111.75390625 29.26171875 C-104.91290282 27.04713442 -98.33689731 24.28362657 -91.76171875 21.3828125 C-87.1781902 19.36563749 -82.51320966 17.79888507 -77.75390625 16.26171875 C-70.30205006 13.84490052 -62.99582089 11.24915384 -55.75390625 8.26171875 C-50.25275555 6.00854265 -44.76271422 3.8759844 -39.10546875 2.046875 C-36.44321967 1.15798453 -33.82084861 0.18073236 -31.19140625 -0.80078125 C-19.11677892 -5.17320897 -11.90377262 -4.80279381 0 0 Z " fill="#FCC902" transform="translate(563.75390625,16.73828125)"/>
<path d="M0 0 C2.83747913 1.10289502 5.62940479 2.00729548 8.55859375 2.82421875 C12.40369567 3.92193333 15.72699725 5.42645795 19.25390625 7.2890625 C22.77841457 9.00985186 26.50839462 10.09887902 30.24609375 11.26171875 C35.67685105 12.97471325 40.83197184 14.9302665 46.01171875 17.296875 C48.86886949 18.53064464 51.78031397 19.47016922 54.7421875 20.41796875 C57.71940974 21.42121369 60.63258141 22.55531881 63.55859375 23.69921875 C67.81936744 25.35784161 72.08722494 26.90522431 76.43359375 28.32421875 C80.79433885 29.75322755 85.0453796 31.32920959 89.29296875 33.0625 C99.24581902 37.10419978 109.22297047 40.99230541 119.4453125 44.30078125 C127.57448422 47.08986946 135.41971062 50.72403547 143.24609375 54.26171875 C143.24609375 55.58171875 143.24609375 56.90171875 143.24609375 58.26171875 C136.72213248 64.69221353 125.89766255 67.02578035 117.24609375 68.26171875 C117.24609375 77.50171875 117.24609375 86.74171875 117.24609375 96.26171875 C118.56609375 96.92171875 119.88609375 97.58171875 121.24609375 98.26171875 C123.13737717 100.15300217 122.48277895 102.83239601 122.57421875 105.3515625 C122.4659375 105.98191406 122.35765625 106.61226563 122.24609375 107.26171875 C121.25609375 107.92171875 120.26609375 108.58171875 119.24609375 109.26171875 C120.04139112 114.43501235 121.28127605 119.40360051 122.625 124.45703125 C123.24609375 127.26171875 123.24609375 127.26171875 123.24609375 131.26171875 C128.19609375 131.26171875 133.14609375 131.26171875 138.24609375 131.26171875 C137.91609375 137.86171875 137.58609375 144.46171875 137.24609375 151.26171875 C81.47609375 151.26171875 25.70609375 151.26171875 -31.75390625 151.26171875 C-31.75390625 101.10171875 -31.75390625 50.94171875 -31.75390625 -0.73828125 C-16.41255374 -5.12152483 -13.32193619 -5.37497772 0 0 Z " fill="#015F94" transform="translate(563.75390625,16.73828125)"/>
<path d="M0 0 C82.08163265 0 82.08163265 0 100 12 C100.495 12.99 100.495 12.99 101 14 C101.60714844 14.28875 102.21429688 14.5775 102.83984375 14.875 C105.413342 16.21526672 106.72685244 17.76601281 108.5625 20 C110.67356316 22.55772463 112.19970251 24.133135 115 26 C115.98481647 27.59608186 116.95441724 29.20400108 117.8359375 30.859375 C118.9890778 33.04153702 118.9890778 33.04153702 120.4140625 35.203125 C130.40974056 51.50376922 132.68972968 72.54577051 128.75 91.0625 C128.20300987 93.0520176 127.62120927 95.03239295 127 97 C126.70996094 97.95132813 126.41992188 98.90265625 126.12109375 99.8828125 C123.92200784 106.48927143 120.78613881 112.17830269 117 118 C116.60296875 118.63421875 116.2059375 119.2684375 115.796875 119.921875 C113.28583916 123.85708042 113.28583916 123.85708042 111 125 C110.75378906 125.57878906 110.50757813 126.15757812 110.25390625 126.75390625 C108.47554282 129.93944821 105.81174846 131.79657375 102.9375 133.9375 C102.34751221 134.37916504 101.75752441 134.82083008 101.1496582 135.27587891 C72.20623282 156.64499182 34.05058876 149 0 149 C0 99.83 0 50.66 0 0 Z " fill="#015F94" transform="translate(274,75)"/>
<path d="M0 0 C51.81 0 103.62 0 157 0 C152.37931034 13.86206897 152.37931034 13.86206897 150.375 19.5 C149.97023438 20.6446875 149.56546875 21.789375 149.1484375 22.96875 C148 26 148 26 146.87890625 28.21875 C145.41177709 31.19213176 145.43619065 33.81647044 146 37 C147.93200867 42.59589763 150.41273505 47.93117258 153.125 53.1875 C154.86999882 56.57279771 156.06498074 59.99303275 157.20703125 63.62109375 C158.37643232 67.12929696 159.8052871 70.52276577 161.23046875 73.93359375 C162 76 162 76 162 78 C159.37619673 78.44077585 156.75226686 78.88077606 154.12817383 79.31982422 C151.90252237 79.69248687 149.67710148 80.0665289 147.4519043 80.44189453 C142.07925259 81.34318475 136.71691709 82.18507441 131.3125 82.875 C122.0009613 84.27485548 112.97990953 87.2348801 104 90 C102.48792969 90.46019531 102.48792969 90.46019531 100.9453125 90.9296875 C92.47894462 93.76984286 84.43971968 97.90022354 76.40234375 101.7578125 C75.60304443 102.1408252 74.80374512 102.52383789 73.98022461 102.91845703 C71.85219191 103.96005071 71.85219191 103.96005071 70 106 C68.68 106 67.36 106 66 106 C66 106.66 66 107.32 66 108 C64.3203125 109.2890625 64.3203125 109.2890625 62.125 110.625 C61.40570312 111.07101562 60.68640625 111.51703125 59.9453125 111.9765625 C58 113 58 113 56 113 C56 113.66 56 114.32 56 115 C53.525 115.495 53.525 115.495 51 116 C50.505 117.485 50.505 117.485 50 119 C48.0625 119.8125 48.0625 119.8125 46 120 C45.01 119.01 45.01 119.01 44 118 C46.66666667 115.33333333 49.33333333 112.66666667 52 110 C52.64453125 109.31421875 53.2890625 108.6284375 53.953125 107.921875 C56.15745278 105.85216266 58.38080409 104.50012139 61 103 C62.61387874 101.88897744 64.21795322 100.76359398 65.8125 99.625 C70.12058156 96.58888911 74.48463622 93.7167912 79 91 C79.58394531 90.64035156 80.16789063 90.28070313 80.76953125 89.91015625 C84.41713581 87.72818061 88.05369648 86.13234156 92.03515625 84.7109375 C95.77952802 83.35611511 99.43010145 81.75756732 103.015625 80.02734375 C109.18173003 77.11064299 115.35616868 75.48214217 122 74 C122.71494629 73.83999512 123.42989258 73.67999023 124.16650391 73.51513672 C127.2783082 72.81947994 130.39029878 72.12509148 133.50561523 71.4453125 C138.36143618 70.38362429 143.18293887 69.22606194 148 68 C147.38125 67.0409375 147.38125 67.0409375 146.75 66.0625 C143.27817154 59.98680019 140.72969375 53.77463387 139 47 C135.63408573 49.72478774 134.55773724 53.06856792 133 57 C132.34 57 131.68 57 131 57 C130.67 58.65 130.34 60.3 130 62 C129.319375 62.15855469 128.63875 62.31710937 127.9375 62.48046875 C114.48652449 65.71800408 101.78799947 69.86612585 89.11889648 75.40893555 C88.35005127 75.74449463 87.58120605 76.08005371 86.7890625 76.42578125 C86.10537598 76.72911377 85.42168945 77.03244629 84.71728516 77.3449707 C83 78 83 78 81 78 C81 78.66 81 79.32 81 80 C79.71086513 80.67154933 78.41859796 81.33708859 77.125 82 C76.40570312 82.37125 75.68640625 82.7425 74.9453125 83.125 C73 84 73 84 71 84 C71 84.66 71 85.32 71 86 C69.35 86.33 67.7 86.66 66 87 C66 87.66 66 88.32 66 89 C64.38260845 90.29331861 62.70326111 91.50956534 61 92.6875 C52.41589319 98.79542215 43.8313383 105.53750167 38.37890625 114.734375 C35.711167 117.27507905 35.25928515 117.33130085 31.76171875 117.3828125 C30.06940488 117.31713062 28.37782672 117.23005213 26.6875 117.125 C17.60929778 116.81344432 9.80720054 117.87952085 1 120 C0.10994422 105.37788025 -0.13506238 90.81864485 -0.09765625 76.171875 C-0.09618047 74.20654326 -0.09516369 72.24121112 -0.09460449 70.27587891 C-0.08942529 63.10057983 -0.07546463 55.92528924 -0.0625 48.75 C-0.041875 32.6625 -0.02125 16.575 0 0 Z " fill="#025F93" transform="translate(531,221)"/>
<path d="M0 0 C78.31578947 0 78.31578947 0 92 13 C92 13.66 92 14.32 92 15 C92.598125 15.2578125 93.19625 15.515625 93.8125 15.78125 C100.57220184 19.5473696 103.76439451 27.97217351 106 35 C109.319772 47.61067755 108.09414938 62.52952172 102 74 C99.59029933 77.60969273 96.95853825 80.82970544 94 84 C93.154375 84.928125 92.30875 85.85625 91.4375 86.8125 C78.61423824 98.32055542 64.09075472 99.76160772 47.5 99.3125 C42.055 99.209375 36.61 99.10625 31 99 C31 115.5 31 132 31 149 C20.77 149 10.54 149 0 149 C0 99.83 0 50.66 0 0 Z " fill="#015F94" transform="translate(35,75)"/>
<path d="M0 0 C8.25 0 16.5 0 25 0 C25 44.88 25 89.76 25 136 C16.75 136 8.5 136 0 136 C0 132.7 0 129.4 0 126 C-0.66 126 -1.32 126 -2 126 C-2.26039063 126.59683594 -2.52078125 127.19367188 -2.7890625 127.80859375 C-5.39448435 132.52356683 -9.88053143 135.21684472 -14.84375 137.05078125 C-26.95176788 140.34303869 -39.61052255 139.69473873 -51 134 C-51 133.34 -51 132.68 -51 132 C-51.721875 131.938125 -52.44375 131.87625 -53.1875 131.8125 C-56.91516905 130.73561783 -58.40703828 128.85225789 -61 126 C-62.299375 124.7625 -62.299375 124.7625 -63.625 123.5 C-68.12171332 118.76661755 -70.60934416 113.01179631 -73 107 C-73.38381836 106.04613403 -73.38381836 106.04613403 -73.77539062 105.07299805 C-75.99561606 99.09918742 -76.5434141 93.65986387 -76.5 87.3125 C-76.49500488 86.34860352 -76.49000977 85.38470703 -76.48486328 84.39160156 C-76.28351479 76.09048917 -74.72271688 69.49454612 -71 62 C-70.31357422 60.60201172 -70.31357422 60.60201172 -69.61328125 59.17578125 C-66.76437601 53.95408917 -63.46433621 50.19129159 -58.83203125 46.47265625 C-56.99522463 45.07591882 -56.99522463 45.07591882 -55.62109375 43.47265625 C-48.35879625 36.87534021 -37.10929329 35.6988758 -27.7421875 35.85546875 C-18.21383128 36.35767556 -11.53392806 38.03057716 -4 44 C-2.68 44.99 -1.36 45.98 0 47 C0 31.49 0 15.98 0 0 Z " fill="#015F94" transform="translate(465,325)"/>
<path d="M0 0 C8.25 0 16.5 0 25 0 C29.47421196 11.79564971 32.81376684 23.80849401 36.15673828 35.96679688 C37.3738916 40.34488396 38.6469733 44.70555735 39.9375 49.0625 C40.14890625 49.77639893 40.3603125 50.49029785 40.578125 51.22583008 C41.05066578 52.81764155 41.52507676 54.40889772 42 56 C44.04638694 52.42335026 44.93676839 48.66115877 45.875 44.6875 C46.22556511 43.24454898 46.57715144 41.80184575 46.9296875 40.359375 C47.19604004 39.26592773 47.19604004 39.26592773 47.46777344 38.15039062 C48.57754689 33.66649864 49.79205394 29.21033889 50.9921875 24.75 C51.69163912 22.14738931 52.38515082 19.54385007 53.0703125 16.9375 C53.24691406 16.2679126 53.42351562 15.5983252 53.60546875 14.90844727 C54.0946884 13.0524932 54.58254551 11.19618012 55.0703125 9.33984375 C55.94530086 6.1965032 56.96819602 3.09541193 58 0 C67.24 0 76.48 0 86 0 C84.65050739 6.07271676 83.21536525 11.86277308 81.3125 17.75 C80.92819824 18.9563208 80.92819824 18.9563208 80.53613281 20.18701172 C79.10140488 24.6660153 77.62577784 29.12996618 76.12109375 33.5859375 C75.80938232 34.51051758 75.4976709 35.43509766 75.17651367 36.38769531 C74.57592416 38.16208518 73.97088969 39.93497919 73.3605957 41.70605469 C72.04669007 45.57678045 70.86653252 49.38160247 70.0390625 53.38671875 C68.86856145 58.97475931 66.98060922 64.29598863 65.125 69.6875 C62.43613841 77.60790484 59.88182524 85.51183702 57.69140625 93.5859375 C57 96 57 96 56 98 C47.42 98 38.84 98 30 98 C27.24734914 89.81850996 24.53895918 81.64044223 22.03515625 73.37890625 C21.2887566 70.94254513 20.52722874 68.51497475 19.74609375 66.08984375 C17.08311217 57.7885433 14.79855088 49.5394611 13 41 C12.34 41 11.68 41 11 41 C11.0825 41.928125 11.165 42.85625 11.25 43.8125 C11.26831888 48.34642229 9.62815077 52.08118372 8.00390625 56.2578125 C7.14145199 58.61362142 6.53941876 60.79595199 6.0625 63.25 C5.10952219 67.98958875 3.53739395 72.46956051 1.96826172 77.03637695 C-0.3744245 83.94045184 -2.18445894 90.93956255 -4 98 C-12.58 98 -21.16 98 -30 98 C-34.48563969 86.78590078 -34.48563969 86.78590078 -35.9375 81.875 C-36.2675 80.77542969 -36.5975 79.67585938 -36.9375 78.54296875 C-37.288125 77.37378906 -37.63875 76.20460938 -38 75 C-38.80511379 72.39351165 -39.62096294 69.79042922 -40.4375 67.1875 C-40.86333891 65.82684096 -41.28911975 64.46616375 -41.71484375 63.10546875 C-42.03364502 62.08718994 -42.03364502 62.08718994 -42.35888672 61.04833984 C-43.61498203 57.0351488 -44.86854077 53.02116479 -46.12255859 49.00732422 C-47.17590361 45.63612525 -48.22989385 42.26513057 -49.28515625 38.89453125 C-51.56939122 31.5964614 -53.84850277 24.29696655 -56.0859375 16.984375 C-56.6894815 15.01382962 -57.29874829 13.04502685 -57.9140625 11.078125 C-58.18992188 10.18609375 -58.46578125 9.2940625 -58.75 8.375 C-59.11351562 7.21097656 -59.11351562 7.21097656 -59.484375 6.0234375 C-60 4 -60 4 -60 1 C-51.09 1 -42.18 1 -33 1 C-30.44087919 7.39780203 -28.51306299 12.66051144 -26.984375 19.19140625 C-25.38545178 25.37771632 -23.43795182 31.45993905 -21.51245117 37.55151367 C-19.61318918 43.65089655 -18.11438563 49.70891939 -17 56 C-11.80903438 39.90041558 -11.80903438 39.90041558 -7.04296875 23.671875 C-4.79359734 15.75273971 -2.37538131 7.88194709 0 0 Z " fill="#015F94" transform="translate(191,363)"/>
<path d="M0 0 C3.9493437 2.83772773 3.9493437 2.83772773 5.671875 4.48046875 C5.671875 5.14046875 5.671875 5.80046875 5.671875 6.48046875 C6.26613281 6.72023438 6.86039062 6.96 7.47265625 7.20703125 C10.12324518 8.74183052 11.20415468 10.29391957 12.859375 12.85546875 C13.36855469 13.62632812 13.87773438 14.3971875 14.40234375 15.19140625 C15.58694779 17.32733846 16.21980947 19.09486991 16.671875 21.48046875 C10.52901786 27.05189732 10.52901786 27.05189732 5.671875 27.48046875 C5.671875 28.14046875 5.671875 28.80046875 5.671875 29.48046875 C4.07421397 30.34674274 2.46847556 31.1981334 0.859375 32.04296875 C-0.03394531 32.51863281 -0.92726563 32.99429688 -1.84765625 33.484375 C-4.328125 34.48046875 -4.328125 34.48046875 -7.328125 33.48046875 C-7.328125 32.82046875 -7.328125 32.16046875 -7.328125 31.48046875 C-7.988125 31.48046875 -8.648125 31.48046875 -9.328125 31.48046875 C-9.6375 30.64515625 -9.6375 30.64515625 -9.953125 29.79296875 C-13.20147728 24.32983082 -17.97110486 21.74032609 -23.890625 19.98046875 C-29.98381471 18.73058368 -35.67145352 18.73784015 -41.328125 21.48046875 C-42.318125 21.48046875 -43.308125 21.48046875 -44.328125 21.48046875 C-44.616875 22.09921875 -44.905625 22.71796875 -45.203125 23.35546875 C-46.328125 25.48046875 -46.328125 25.48046875 -48.328125 27.48046875 C-48.75444067 31.81467803 -48.94799275 34.32158557 -46.890625 38.16796875 C-40.41930057 44.00794446 -33.20346123 46.28648735 -24.88671875 48.515625 C-19.61811775 49.94410408 -14.47765131 51.67525771 -9.328125 53.48046875 C-8.48765625 53.75246094 -7.6471875 54.02445312 -6.78125 54.3046875 C3.98445301 58.09325496 12.79536036 64.92107902 18.46875 74.86328125 C20.15974727 78.54174935 20.70098697 81.4630171 20.671875 85.48046875 C20.70796875 86.41890625 20.7440625 87.35734375 20.78125 88.32421875 C20.99733153 96.88104753 20.45088702 104.20805916 15.671875 111.48046875 C15.55714844 112.11210937 15.44242187 112.74375 15.32421875 113.39453125 C14.45280997 116.18095215 13.03886314 117.20749494 10.796875 119.04296875 C7.89365931 121.42704614 7.89365931 121.42704614 5.203125 124.0390625 C-4.48120177 133.15517622 -23.10774343 134.12498832 -35.625 133.83203125 C-52.44054663 132.2356186 -65.02933208 124.9627792 -76.203125 112.41796875 C-81.31852843 105.34667578 -81.31852843 105.34667578 -82.328125 101.48046875 C-81.50079894 98.45665025 -80.40748443 97.53580988 -77.82421875 95.734375 C-76.31021484 94.89712891 -76.31021484 94.89712891 -74.765625 94.04296875 C-73.69441406 93.44484375 -72.62320313 92.84671875 -71.51953125 92.23046875 C-70.46636719 91.65296875 -69.41320312 91.07546875 -68.328125 90.48046875 C-67.42964844 89.96484375 -66.53117187 89.44921875 -65.60546875 88.91796875 C-59.59960937 85.48046875 -59.59960937 85.48046875 -57.328125 85.48046875 C-55.71909365 87.7974739 -54.47960207 89.76636254 -53.890625 92.54296875 C-53.10309279 95.25557971 -51.32668724 96.54637626 -49.328125 98.48046875 C-49.328125 99.14046875 -49.328125 99.80046875 -49.328125 100.48046875 C-47.678125 100.81046875 -46.028125 101.14046875 -44.328125 101.48046875 C-44.328125 102.14046875 -44.328125 102.80046875 -44.328125 103.48046875 C-38.99204745 104.66686084 -33.83788744 104.73924821 -28.390625 104.79296875 C-27.41416016 104.82197266 -26.43769531 104.85097656 -25.43164062 104.88085938 C-19.30487955 104.93485795 -16.09159704 104.35700217 -11.328125 100.48046875 C-10.668125 100.48046875 -10.008125 100.48046875 -9.328125 100.48046875 C-7.92803372 92.07688326 -7.92803372 92.07688326 -11.328125 84.48046875 C-19.05602852 76.97336248 -29.26163941 75.02894611 -39.328125 72.48046875 C-44.79685873 71.00702754 -49.55727571 69.61559828 -54.328125 66.48046875 C-55.4728125 66.07828125 -55.4728125 66.07828125 -56.640625 65.66796875 C-64.73972276 62.08929765 -71.15569164 55.75042397 -75.140625 47.91796875 C-78.0032213 38.93355505 -77.84890291 29.98100046 -75.640625 20.91796875 C-75.48005615 20.25152344 -75.3194873 19.58507812 -75.15405273 18.8984375 C-73.97956467 14.60017155 -72.28602392 11.77527121 -69.328125 8.48046875 C-68.87050781 7.87203125 -68.41289063 7.26359375 -67.94140625 6.63671875 C-52.66447297 -12.8149921 -19.28276656 -12.58556408 0 0 Z " fill="#015F94" transform="translate(107.328125,330.51953125)"/>
<path d="M0 0 C9.24 0 18.48 0 28 0 C28.33 16.83 28.66 33.66 29 51 C30.485 50.505 30.485 50.505 32 50 C32 49.34 32 48.68 32 48 C43.19937574 39.12423306 53.79085649 37.99571258 67.703125 39.2421875 C74.21182567 40.2451005 79.83396159 42.8984786 85 47 C85.33 47.99 85.66 48.98 86 50 C87.31927767 50.69406675 88.65455167 51.35813474 90 52 C96.83892906 58.22024844 98.4701396 67.18025205 99.15963364 76.05461884 C99.40294948 81.29352704 99.34580164 86.53076254 99.29296875 91.7734375 C99.28735723 93.43494275 99.28309452 95.09645305 99.28010559 96.75796509 C99.26877904 101.08160679 99.2394206 105.40493483 99.20599365 109.72845459 C99.17502619 114.16007243 99.16154389 118.59174211 99.14648438 123.0234375 C99.11453604 131.68245001 99.0618716 140.34114957 99 149 C89.76 149 80.52 149 71 149 C70.95101562 144.64039063 70.90203125 140.28078125 70.8515625 135.7890625 C70.80695109 132.28879743 70.76045974 128.78856843 70.71270752 125.28834534 C70.66299292 121.60681764 70.61650569 117.92531712 70.578125 114.24365234 C70.54095271 110.69031334 70.49451167 107.13720014 70.44193649 103.58405685 C70.41468495 101.58472908 70.39676279 99.58528106 70.37905884 97.58584595 C70.15735692 82.92848676 70.15735692 82.92848676 64 70 C59.14770904 66.13422682 53.90936641 65.30941886 47.8203125 65.546875 C42.07128304 66.47054178 36.88968336 68.805529 33.0625 73.25 C32.5365625 74.61125 32.5365625 74.61125 32 76 C31.75513351 76.56569199 31.51026703 77.13138397 31.25798035 77.71421814 C28.42129331 84.97316758 28.52290636 92.18119923 28.48828125 99.87890625 C28.47140541 101.30095439 28.45325133 102.72298788 28.43388367 104.14500427 C28.38669209 107.85860615 28.35668462 111.5721486 28.33044434 115.28594971 C28.29519874 119.75746439 28.23827522 124.22875099 28.18505096 128.70008087 C28.10689924 135.46669021 28.05602134 142.23300847 28 149 C18.76 149 9.52 149 0 149 C0 99.83 0 50.66 0 0 Z " fill="#015F94" transform="translate(155,75)"/>
<path d="M0 0 C0 43.56 0 87.12 0 132 C-17.16 132 -34.32 132 -52 132 C-51.87625 124.6678125 -51.87625 124.6678125 -51.75 117.1875 C-51.64310038 99.42150148 -53.04341964 82.06425726 -62.52734375 66.4921875 C-64 64 -64 64 -65 61.484375 C-66.0720729 58.82094389 -67.40166276 56.63152249 -69 54.25 C-69.515625 53.47140625 -70.03125 52.6928125 -70.5625 51.890625 C-71.87151162 49.880361 -71.87151162 49.880361 -74 49 C-74 48.34 -74 47.68 -74 47 C-76.50070816 45.98898024 -79.00257138 44.99905703 -81.53515625 44.0703125 C-89.9043152 40.93996248 -89.9043152 40.93996248 -93 37 C-90.33619959 33.65796258 -86.83608166 32.61440955 -82.9375 31.25 C-81.49302416 30.72784824 -80.04903146 30.20435844 -78.60546875 29.6796875 C-77.85185059 29.40737305 -77.09823242 29.13505859 -76.32177734 28.85449219 C-72.43936033 27.42563209 -68.59774765 25.89418073 -64.75 24.375 C-58.81561809 22.04401756 -52.85898759 19.91735963 -46.7890625 17.9609375 C-42.77372152 16.57750069 -38.90405562 14.88610709 -35 13.21875 C-32.02999346 12.01218484 -29.05001087 10.98489934 -26 10 C-19.0607628 7.75361522 -12.41457576 4.91146579 -5.7265625 2.015625 C-1.0678066 0 -1.0678066 0 0 0 Z " fill="#015F94" transform="translate(478,36)"/>
<path d="M0 0 C3.80093214 3.53273985 6.44721787 7.77886159 9.125 12.1875 C9.51816406 12.7753125 9.91132812 13.363125 10.31640625 13.96875 C17.18281512 24.71176609 15.125 38.14934045 15.125 50.1875 C-8.305 50.1875 -31.735 50.1875 -55.875 50.1875 C-54.885 53.1575 -53.895 56.1275 -52.875 59.1875 C-52.215 59.1875 -51.555 59.1875 -50.875 59.1875 C-50.38 59.765 -49.885 60.3425 -49.375 60.9375 C-43.38375753 66.32961822 -35.90443066 67.9651671 -27.98828125 67.71875 C-22.42856462 66.77004051 -17.56738606 64.26264604 -12.875 61.1875 C-12.545 60.5275 -12.215 59.8675 -11.875 59.1875 C-7.63276898 58.8238802 -5.29331915 59.6481772 -1.875 62.1875 C-1.875 62.8475 -1.875 63.5075 -1.875 64.1875 C-0.885 64.2803125 -0.885 64.2803125 0.125 64.375 C4.31157836 65.50886497 7.55050992 67.78381064 11.125 70.1875 C7.04824257 79.36020422 -1.74262221 85.33174913 -10.86523438 88.984375 C-26.09181645 94.11458483 -42.19855983 93.74473623 -56.796875 86.796875 C-61.97221841 83.81713182 -66.56263869 80.31236734 -70.875 76.1875 C-70.875 75.5275 -70.875 74.8675 -70.875 74.1875 C-71.535 74.1875 -72.195 74.1875 -72.875 74.1875 C-81.77966856 60.26998951 -86.40309893 46.02246379 -83.11328125 29.3203125 C-81.48670865 22.52209467 -79.34652811 16.26267419 -75.875 10.1875 C-75.215 10.1875 -74.555 10.1875 -73.875 10.1875 C-73.61332031 9.5996875 -73.35164062 9.011875 -73.08203125 8.40625 C-71.81018725 6.068362 -70.46213472 4.54080216 -68.5625 2.6875 C-67.98886719 2.1203125 -67.41523437 1.553125 -66.82421875 0.96875 C-48.73022101 -15.56604553 -18.94451006 -15.01341967 0 0 Z " fill="#025F94" transform="translate(588.875,371.8125)"/>
<path d="M0 0 C0.8559375 0.01675781 1.711875 0.03351563 2.59375 0.05078125 C14.78951617 0.66407409 24.98509931 5.93113853 33.5234375 14.53515625 C45.12997799 27.72440681 46 44.11153907 46 61 C22.24 61 -1.52 61 -26 61 C-20.28187612 71.5657331 -20.28187612 71.5657331 -10.6875 77.234375 C-2.3970311 79.59619463 5.38211847 78.5007363 13.07421875 74.875 C15 74 15 74 17 74 C17 73.34 17 72.68 17 72 C20 70 20 70 22.4375 70.1875 C25.2304857 71.07308083 26.71460469 72.18512725 29 74 C30.74438768 75.01491647 32.48940775 76.02908624 34.25 77.015625 C36.5283395 78.29719097 38.76461956 79.64522397 41 81 C40.44717495 84.70717977 39.10093677 86.14208237 36.25 88.5 C35.52296875 89.10457031 34.7959375 89.70914063 34.046875 90.33203125 C33.37140625 90.88246094 32.6959375 91.43289063 32 92 C30.7625 93.0828125 30.7625 93.0828125 29.5 94.1875 C16.84299726 103.36382699 1.42041215 104.18816794 -13.5 101.8125 C-22.50066998 100.23440982 -29.07024178 97.01794793 -36 91 C-36.51949219 90.66355469 -37.03898437 90.32710938 -37.57421875 89.98046875 C-45.06136767 84.68057681 -49.17407747 74.4777676 -52 66 C-53.00037148 58.68864299 -53.20987253 51.36763028 -53 44 C-53.00644531 43.27425781 -53.01289063 42.54851562 -53.01953125 41.80078125 C-52.66231526 32.59821697 -46.88623942 23.55386203 -42 16 C-40.02918251 14.20834774 -38.11114571 12.60086878 -36 11 C-35.49726563 10.5875 -34.99453125 10.175 -34.4765625 9.75 C-24.16627294 1.70294474 -12.73033194 -0.43398859 0 0 Z " fill="#026094" transform="translate(333,361)"/>
<path d="M0 0 C1.0828125 0.00773437 1.0828125 0.00773437 2.1875 0.015625 C11.04183043 0.45834152 18.40533384 4.92631652 24.4375 11.25 C28.16045134 15.7511092 30.23388264 20.47215243 32 26 C32.495 27.485 32.495 27.485 33 29 C33.08989374 31.28459674 33.11757205 33.57179326 33.11352539 35.8581543 C33.11367142 36.55109589 33.11381744 37.24403748 33.1139679 37.95797729 C33.11327163 40.24675637 33.1054926 42.5354539 33.09765625 44.82421875 C33.09579106 46.41176814 33.09436763 47.99931811 33.09336853 49.58686829 C33.08955134 53.7642272 33.07972786 57.94155131 33.06866455 62.11889648 C33.05843328 66.38199391 33.05386723 70.64509696 33.04882812 74.90820312 C33.03810489 83.27215316 33.02051453 91.63606824 33 100 C24.42 100 15.84 100 7 100 C7.03480469 96.82761719 7.06960938 93.65523438 7.10546875 90.38671875 C7.12899867 87.2455332 7.14713834 84.10435821 7.16479492 80.96313477 C7.17969617 78.81334901 7.20002414 76.66359261 7.22631836 74.51391602 C7.35539095 63.67434929 7.33043071 53.00506629 5.67578125 42.26953125 C5.55881393 41.50041916 5.44184662 40.73130707 5.32133484 39.93888855 C4.38371236 34.5854227 2.84324046 30.84324046 -1 27 C-7.79230217 24.87740557 -16.54838647 25.14640171 -23 28 C-27.0160582 31.68895844 -29.83094994 35.09963961 -30.15821838 40.71452332 C-30.17376266 41.80928482 -30.18930695 42.90404633 -30.20532227 44.03198242 C-30.22526749 45.27304245 -30.24521271 46.51410248 -30.26576233 47.79277039 C-30.28274527 49.1470019 -30.29962413 50.50123473 -30.31640625 51.85546875 C-30.33698228 53.24124259 -30.35797892 54.62701025 -30.37937927 56.01277161 C-30.43453301 59.65740953 -30.48397174 63.30210346 -30.53222656 66.94683838 C-30.58249056 70.66708341 -30.6380989 74.38724826 -30.69335938 78.10742188 C-30.8013643 85.40488643 -30.90043907 92.70239575 -31 100 C-39.91 100 -48.82 100 -58 100 C-58 67.66 -58 35.32 -58 2 C-49.09 2 -40.18 2 -31 2 C-30.67 4.64 -30.34 7.28 -30 10 C-28.68 9.34 -27.36 8.68 -26 8 C-26 7.34 -26 6.68 -26 6 C-17.1771838 1.18916863 -9.98212051 -0.3372338 0 0 Z " fill="#015F94" transform="translate(677,361)"/>
<path d="M0 0 C40.85750636 0 40.85750636 0 49.25 4.9375 C50.14203125 5.44152344 51.0340625 5.94554688 51.953125 6.46484375 C54 8 54 8 55 11 C56.33110744 11.6711 57.66470879 12.33726355 59 13 C68.37308454 23.45098926 69.88734228 36.29452965 69.47265625 49.75 C69.00832036 56.98887742 66.85522745 63.36159618 64 70 C63.34 70 62.68 70 62 70 C61.7215625 70.99 61.7215625 70.99 61.4375 72 C57.0789087 81.09619054 50.06268754 85.17088202 41 89 C28.03080573 93.32306476 13.6707311 90 0 90 C0 60.3 0 30.6 0 0 Z " fill="#FEFEFE" transform="translate(305,104)"/>
<path d="M0 0 C0.68442295 -0.00012053 1.3688459 -0.00024107 2.07400894 -0.00036526 C4.28146913 0.00037896 6.48884405 0.00798476 8.69628906 0.01586914 C10.06233683 0.01734008 11.42838515 0.01835986 12.79443359 0.0189209 C17.85026903 0.02415615 22.90609239 0.0381174 27.96191406 0.05102539 C39.26441406 0.07165039 50.56691406 0.09227539 62.21191406 0.11352539 C62.21191406 27.17352539 62.21191406 54.23352539 62.21191406 82.11352539 C51.32191406 82.11352539 40.43191406 82.11352539 29.21191406 82.11352539 C22.57321985 75.27160585 22.57321985 75.27160585 20.86425781 69.94702148 C19.88446189 67.19317889 18.26409965 64.99072275 16.58691406 62.61352539 C13.23347199 57.35719991 10.4984788 51.88431127 7.79003906 46.27758789 C6.28850824 43.16050334 6.28850824 43.16050334 4.62597656 40.48852539 C3.25750796 38.19010298 2.28100983 35.98661951 1.33691406 33.48852539 C-0.08725471 29.81938829 -1.62452572 26.24298426 -3.28808594 22.67602539 C-6.48672843 15.71601626 -9.43216556 8.67956108 -10.78808594 1.11352539 C-7.16606769 -0.01946891 -3.77978551 -0.00689742 0 0 Z " fill="#025F93" transform="translate(415.7880859375,219.886474609375)"/>
<path d="M0 0 C6.62691663 2.94529628 10.25827117 6.49753655 13.05029297 13.1315918 C16.2762664 23.08810955 15.52442153 33.46223786 15.38671875 43.796875 C15.37164552 45.77017208 15.35796178 47.7434803 15.34570312 49.71679688 C15.31547614 54.51482658 15.25671913 59.31128783 15.19921875 64.109375 C9.25921875 64.109375 3.31921875 64.109375 -2.80078125 64.109375 C-2.84976563 61.19609375 -2.89875 58.2828125 -2.94921875 55.28125 C-3.00323661 52.45811855 -3.06054096 49.63507161 -3.11816406 46.81201172 C-3.15643452 44.8508128 -3.19129079 42.88954416 -3.22265625 40.92822266 C-3.26834865 38.10814503 -3.32633625 35.28854662 -3.38671875 32.46875 C-3.39826996 31.59257019 -3.40982117 30.71639038 -3.42172241 29.81365967 C-3.4415921 28.99311096 -3.46146179 28.17256226 -3.48193359 27.32714844 C-3.49525726 26.60767029 -3.50858093 25.88819214 -3.52230835 25.14691162 C-3.84747639 22.76771497 -4.54685471 21.15057667 -5.80078125 19.109375 C-6.46078125 18.779375 -7.12078125 18.449375 -7.80078125 18.109375 C-7.80078125 17.449375 -7.80078125 16.789375 -7.80078125 16.109375 C-13.8443711 15.78689096 -18.60823632 15.56324676 -23.80078125 19.109375 C-26.55611205 21.66597824 -27.02284572 23.80241512 -27.2331543 27.41894531 C-27.27450306 29.17484257 -27.30000311 30.93116041 -27.3125 32.6875 C-27.3304512 33.6140741 -27.3484024 34.54064819 -27.36689758 35.49530029 C-27.42100826 38.4499458 -27.45489882 41.40442969 -27.48828125 44.359375 C-27.52145365 46.36460583 -27.55594323 48.36981532 -27.59179688 50.375 C-27.67673527 55.28634174 -27.74354298 60.19763548 -27.80078125 65.109375 C-33.41078125 65.109375 -39.02078125 65.109375 -44.80078125 65.109375 C-44.80078125 43.989375 -44.80078125 22.869375 -44.80078125 1.109375 C-39.19078125 1.109375 -33.58078125 1.109375 -27.80078125 1.109375 C-27.47078125 2.429375 -27.14078125 3.749375 -26.80078125 5.109375 C-26.07375 4.67625 -25.34671875 4.243125 -24.59765625 3.796875 C-16.28270111 -0.80833092 -9.29709139 -2.95639726 0 0 Z " fill="#FECA02" transform="translate(238.80078125,264.890625)"/>
<path d="M0 0 C2.14071727 2.14071727 2.80782813 3.16472924 3.125 6.125 C3.785 6.125 4.445 6.125 5.125 6.125 C7.81157855 13.01665801 9.49986901 18.62761977 9.125 26.125 C9.09277344 26.805625 9.06054688 27.48625 9.02734375 28.1875 C8.03879071 35.98453808 2.9144438 41.16617941 -2.875 46.125 C-9.02282036 49.64813515 -15.85398147 50.17987933 -22.64453125 48.3984375 C-30.63406333 45.76734661 -34.75590527 42.6287916 -38.6875 35.125 C-42.20160641 26.82501535 -42.26575266 18.69691348 -38.9375 10.3125 C-36.09235252 4.77621588 -32.12236313 0.48546885 -26.875 -2.875 C-18.18543564 -5.39188029 -7.64536384 -4.98610685 0 0 Z " fill="#FEFEFE" transform="translate(455.875,389.875)"/>
<path d="M0 0 C3.91875 -0.04125 7.8375 -0.0825 11.875 -0.125 C13.69620361 -0.15231201 13.69620361 -0.15231201 15.55419922 -0.18017578 C33.89860696 -0.27271877 33.89860696 -0.27271877 40.52734375 6.16796875 C44.32383485 10.89092452 46.8173344 16.59074352 46.4453125 22.75390625 C45.33512867 28.35351767 43.47233658 34.33040253 39.53125 38.5859375 C28.87450419 45.53371786 11.80089752 43.6858425 0 42 C0 28.14 0 14.28 0 0 Z " fill="#FCFDFD" transform="translate(66,103)"/>
<path d="M0 0 C4.12613018 0.24228167 7.38945036 0.94253603 11 3 C13.50626936 7.11555811 14.88429362 11.38273416 16.32177734 15.96142578 C17.38486754 19.15681927 18.75493567 22.17330467 20.125 25.25 C21.88747126 29.31829506 23.53464933 33.37837888 25 37.5625 C26.8548602 42.81793725 29.17051095 47.80062326 31.54296875 52.83984375 C33.97650124 58.11793433 36.16195651 63.48586954 38 69 C37.28384521 69.01458252 36.56769043 69.02916504 35.82983398 69.04418945 C-6.68790923 69.99680772 -50.84562656 73.77223804 -89.11352539 94.12402344 C-91 95 -91 95 -93.0625 94.75 C-95 94 -95 94 -98 92 C-92.50003767 87.79015229 -86.83271563 84.78951388 -80.5625 81.875 C-79.20801758 81.23111328 -79.20801758 81.23111328 -77.82617188 80.57421875 C-72.62300777 78.12522768 -67.41092446 75.94556738 -62 74 C-60.74922329 73.52286447 -59.49913657 73.04391305 -58.25 72.5625 C-56.83461857 72.03818404 -55.41784212 71.5176249 -54 71 C-52.79537109 70.55333984 -52.79537109 70.55333984 -51.56640625 70.09765625 C-36.6163431 64.81742118 -21.2374876 61.83161923 -5.5625 59.6875 C-4.33160645 59.51605469 -3.10071289 59.34460938 -1.83251953 59.16796875 C6.51371361 58.09349057 14.5912885 57.80441113 23 58 C19.00627579 47.81737621 14.97406995 37.70654282 10.3046875 27.8125 C6.20541923 18.97575402 2.18910261 9.50822348 0 0 Z " fill="#036094" transform="translate(682,250)"/>
<path d="M0 0 C0.11622939 3.74973906 0.1872595 7.49901464 0.25 11.25 C0.28351563 12.31347656 0.31703125 13.37695312 0.3515625 14.47265625 C0.37089844 16.00986328 0.37089844 16.00986328 0.390625 17.578125 C0.4220459 18.99206543 0.4220459 18.99206543 0.45410156 20.43457031 C-0.12978353 23.73320719 -1.58283665 24.77375837 -4 27 C-4.58345476 29.95746492 -4.58345476 29.95746492 -4 33 C-3.46117187 33.72316406 -2.92234375 34.44632813 -2.3671875 35.19140625 C-0.45109246 39.12761292 -1.50402638 42.00347225 -2.6875 46 C-2.87505859 46.69867188 -3.06261719 47.39734375 -3.25585938 48.1171875 C-4.28786475 51.87638232 -5.54810809 55.37027023 -7 59 C-13.6 59 -20.2 59 -27 59 C-27 46.46 -27 33.92 -27 21 C-35.91 23.475 -35.91 23.475 -45 26 C-50.859375 27.125 -50.859375 27.125 -53.41601562 27.54296875 C-58.42066883 28.42814551 -63.32775387 29.74457864 -68.25 31 C-69.28640625 31.26039062 -70.3228125 31.52078125 -71.390625 31.7890625 C-75.62989729 32.85969504 -79.85779678 33.93899048 -84.05078125 35.1796875 C-86.86152548 35.96148391 -89.10213441 36.17562822 -92 36 C-89.86165469 33.86165469 -88.47761721 33.260622 -85.6875 32.1875 C-84.78386719 31.836875 -83.88023437 31.48625 -82.94921875 31.125 C-81.48935547 30.568125 -81.48935547 30.568125 -80 30 C-79.03707031 29.62875 -78.07414063 29.2575 -77.08203125 28.875 C-74.94743847 28.052546 -72.81196042 27.23238731 -70.67578125 26.4140625 C-67.27376505 25.10531663 -63.87715462 23.78360685 -60.48168945 22.45800781 C-53.94176684 19.9052318 -47.39254112 17.38511692 -40.8125 14.9375 C-32.16123881 11.71645677 -23.60609459 8.272139 -15.05078125 4.8046875 C-3.14583333 0 -3.14583333 0 0 0 Z " fill="#FDFDFE" transform="translate(674,89)"/>
<path d="M0 0 C5.94 0 11.88 0 18 0 C18 20.79 18 41.58 18 63 C12.06 63 6.12 63 0 63 C0 42.21 0 21.42 0 0 Z " fill="#FECA02" transform="translate(164,266)"/>
<path d="M0 0 C5.61374026 4.18044487 5.52916116 6.58748347 8 14 C-7.51 14 -23.02 14 -39 14 C-33.93137719 1.32844297 -33.93137719 1.32844297 -26.96484375 -1.9609375 C-17.50777784 -5.59698753 -8.87482279 -4.80061589 0 0 Z " fill="#F9FBFC" transform="translate(345,388)"/>
<path d="M0 0 C4.64957375 4.43265651 5.92588419 7.55530513 7 14 C-7.85 14 -22.7 14 -38 14 C-37.00456002 8.02736015 -36.14051015 5.18110339 -32 1 C-22.20873554 -5.44980119 -10.1360348 -6.2456118 0 0 Z " fill="#F5F9FB" transform="translate(571,388)"/>
<path d="M0 0 C3.19737109 1.89473842 5.42221849 3.31423748 6.6640625 6.9375 C7.34293071 11.10543508 7.17357216 14.37737973 5 18 C2.41819998 20.87970002 0.98639257 21.00129595 -2.9375 21.375 C-6.6720415 21.22895648 -9.02528159 20.36227638 -12 18 C-14.36140096 14.45789856 -14.60306348 12.46070351 -14.5078125 8.296875 C-13.72091616 4.73768234 -11.89397757 3.12786083 -9 1.0390625 C-5.72013314 -0.66493083 -3.60117445 -0.72023489 0 0 Z " fill="#FECA04" transform="translate(176,238)"/>
</svg>
